<?xml version="1.0" encoding="UTF-8" standalone="no"?>
<!DOCTYPE svg PUBLIC "-//W3C//DTD SVG 1.1//EN"
 "http://www.w3.org/Graphics/SVG/1.1/DTD/svg11.dtd">
<!-- Generated by graphviz version 2.38.0 (20140413.2041)
 -->
<!-- Title: %3 Pages: 1 -->
<svg width="363pt" height="260pt"
 viewBox="0.00 0.00 363.19 260.00" xmlns="http://www.w3.org/2000/svg" xmlns:xlink="http://www.w3.org/1999/xlink">
<g id="graph0" class="graph" transform="scale(1 1) rotate(0) translate(4 256)">
<title>%3</title>
<polygon fill="white" stroke="none" points="-4,4 -4,-256 359.193,-256 359.193,4 -4,4"/>
<!-- Will -->
<g id="node1" class="node"><title>Will</title>
<ellipse fill="none" stroke="black" cx="181.546" cy="-234" rx="29.4969" ry="18"/>
<text text-anchor="middle" x="181.546" y="-230.3" font-family="Times,serif" font-size="14.00">Will</text>
</g>
<!-- Desktop -->
<g id="node2" class="node"><title>Desktop</title>
<ellipse fill="none" stroke="black" cx="181.546" cy="-162" rx="49.2915" ry="18"/>
<text text-anchor="middle" x="181.546" y="-158.3" font-family="Times,serif" font-size="14.00">Desktop</text>
</g>
<!-- Will&#45;&gt;Desktop -->
<g id="edge1" class="edge"><title>Will&#45;&gt;Desktop</title>
<path fill="none" stroke="black" d="M181.546,-215.697C181.546,-207.983 181.546,-198.712 181.546,-190.112"/>
<polygon fill="black" stroke="black" points="185.046,-190.104 181.546,-180.104 178.046,-190.104 185.046,-190.104"/>
</g>
<!-- Laptop -->
<g id="node3" class="node"><title>Laptop</title>
<ellipse fill="none" stroke="black" cx="43.5461" cy="-18" rx="43.5923" ry="18"/>
<text text-anchor="middle" x="43.5461" y="-14.3" font-family="Times,serif" font-size="14.00">Laptop</text>
</g>
<!-- Will&#45;&gt;Laptop -->
<g id="edge2" class="edge"><title>Will&#45;&gt;Laptop</title>
<path fill="none" stroke="black" d="M163.691,-219.61C151.308,-209.672 135.039,-195.251 123.546,-180 91.2022,-137.079 66.1757,-79.0597 53.2556,-45.6698"/>
<polygon fill="black" stroke="black" points="56.4603,-44.2496 49.6399,-36.1421 49.9157,-46.7333 56.4603,-44.2496"/>
</g>
<!-- Phone -->
<g id="node4" class="node"><title>Phone</title>
<ellipse fill="none" stroke="black" cx="315.546" cy="-18" rx="39.7935" ry="18"/>
<text text-anchor="middle" x="315.546" y="-14.3" font-family="Times,serif" font-size="14.00">Phone</text>
</g>
<!-- Will&#45;&gt;Phone -->
<g id="edge3" class="edge"><title>Will&#45;&gt;Phone</title>
<path fill="none" stroke="black" d="M199.496,-219.68C211.924,-209.776 228.207,-195.366 239.546,-180 271.147,-137.176 294.62,-79.1228 306.603,-45.7007"/>
<polygon fill="black" stroke="black" points="309.941,-46.7581 309.949,-36.1633 303.336,-44.4406 309.941,-46.7581"/>
</g>
<!-- Will&#39;s Server -->
<g id="node5" class="node"><title>Will&#39;s Server</title>
<ellipse fill="none" stroke="black" cx="181.546" cy="-90" rx="70.6878" ry="18"/>
<text text-anchor="middle" x="181.546" y="-86.3" font-family="Times,serif" font-size="14.00">Will&#39;s Server</text>
</g>
<!-- Desktop&#45;&gt;Will&#39;s Server -->
<g id="edge4" class="edge"><title>Desktop&#45;&gt;Will&#39;s Server</title>
<path fill="none" stroke="black" d="M175.668,-144.055C174.85,-136.346 174.608,-127.027 174.941,-118.364"/>
<polygon fill="black" stroke="black" points="178.44,-118.491 175.633,-108.275 171.457,-118.012 178.44,-118.491"/>
</g>
<!-- Laptop&#45;&gt;Will&#39;s Server -->
<g id="edge5" class="edge"><title>Laptop&#45;&gt;Will&#39;s Server</title>
<path fill="none" stroke="black" d="M73.1569,-31.3371C94.8663,-41.5576 124.243,-56.3013 147,-68.3216"/>
<polygon fill="black" stroke="black" points="145.522,-71.4996 155.993,-73.1159 148.815,-65.3227 145.522,-71.4996"/>
</g>
<!-- Phone&#45;&gt;Will&#39;s Server -->
<g id="edge6" class="edge"><title>Phone&#45;&gt;Will&#39;s Server</title>
<path fill="none" stroke="black" d="M293.658,-33.345C274.992,-43.807 247.807,-58.1029 224.826,-69.586"/>
<polygon fill="black" stroke="black" points="223.008,-66.5805 215.6,-74.1548 226.115,-72.8535 223.008,-66.5805"/>
</g>
<!-- Will&#39;s Server&#45;&gt;Desktop -->
<g id="edge7" class="edge"><title>Will&#39;s Server&#45;&gt;Desktop</title>
<path fill="none" stroke="black" d="M187.459,-108.275C188.261,-116.03 188.487,-125.362 188.137,-134.005"/>
<polygon fill="black" stroke="black" points="184.64,-133.832 187.424,-144.055 191.623,-134.327 184.64,-133.832"/>
</g>
<!-- Will&#39;s Server&#45;&gt;Laptop -->
<g id="edge8" class="edge"><title>Will&#39;s Server&#45;&gt;Laptop</title>
<path fill="none" stroke="black" d="M146.644,-74.1548C124.802,-63.737 96.9802,-49.7052 75.6808,-38.402"/>
<polygon fill="black" stroke="black" points="77.1611,-35.2244 66.6941,-33.5838 73.8534,-41.3936 77.1611,-35.2244"/>
</g>
<!-- Will&#39;s Server&#45;&gt;Phone -->
<g id="edge9" class="edge"><title>Will&#39;s Server&#45;&gt;Phone</title>
<path fill="none" stroke="black" d="M206.192,-73.1159C226.473,-61.8418 255.344,-46.7505 278.395,-35.369"/>
<polygon fill="black" stroke="black" points="280.105,-38.4293 287.554,-30.8956 277.033,-32.1395 280.105,-38.4293"/>
</g>
<!-- Outside world -->
<g id="node6" class="node"><title>Outside world</title>
<ellipse fill="none" stroke="black" cx="181.546" cy="-18" rx="76.8869" ry="18"/>
<text text-anchor="middle" x="181.546" y="-14.3" font-family="Times,serif" font-size="14.00">Outside world</text>
</g>
<!-- Will&#39;s Server&#45;&gt;Outside world -->
<g id="edge10" class="edge"><title>Will&#39;s Server&#45;&gt;Outside world</title>
<path fill="none" stroke="black" d="M181.546,-71.6966C181.546,-63.9827 181.546,-54.7125 181.546,-46.1124"/>
<polygon fill="black" stroke="black" points="185.046,-46.1043 181.546,-36.1043 178.046,-46.1044 185.046,-46.1043"/>
</g>
</g>
</svg>
