<?xml version="1.0" encoding="UTF-8" standalone="no"?>
<!DOCTYPE svg PUBLIC "-//W3C//DTD SVG 1.1//EN"
 "http://www.w3.org/Graphics/SVG/1.1/DTD/svg11.dtd">
<!-- Generated by graphviz version 2.38.0 (20140413.2041)
 -->
<!-- Title: %3 Pages: 1 -->
<svg width="219pt" height="332pt"
 viewBox="0.00 0.00 219.34 332.00" xmlns="http://www.w3.org/2000/svg" xmlns:xlink="http://www.w3.org/1999/xlink">
<g id="graph0" class="graph" transform="scale(1 1) rotate(0) translate(4 328)">
<title>%3</title>
<polygon fill="white" stroke="none" points="-4,4 -4,-328 215.336,-328 215.336,4 -4,4"/>
<!-- Will -->
<g id="node1" class="node"><title>Will</title>
<ellipse fill="none" stroke="black" cx="79.9429" cy="-306" rx="29.4969" ry="18"/>
<text text-anchor="middle" x="79.9429" y="-302.3" font-family="Times,serif" font-size="14.00">Will</text>
</g>
<!-- Will&#39;s Devices -->
<g id="node2" class="node"><title>Will&#39;s Devices</title>
<ellipse fill="none" stroke="black" cx="79.9429" cy="-234" rx="76.0865" ry="18"/>
<text text-anchor="middle" x="79.9429" y="-230.3" font-family="Times,serif" font-size="14.00">Will&#39;s Devices</text>
</g>
<!-- Will&#45;&gt;Will&#39;s Devices -->
<g id="edge1" class="edge"><title>Will&#45;&gt;Will&#39;s Devices</title>
<path fill="none" stroke="black" d="M79.9429,-287.697C79.9429,-279.983 79.9429,-270.712 79.9429,-262.112"/>
<polygon fill="black" stroke="black" points="83.443,-262.104 79.9429,-252.104 76.443,-262.104 83.443,-262.104"/>
</g>
<!-- Will&#39;s Server -->
<g id="node3" class="node"><title>Will&#39;s Server</title>
<ellipse fill="none" stroke="black" cx="79.9429" cy="-162" rx="70.6878" ry="18"/>
<text text-anchor="middle" x="79.9429" y="-158.3" font-family="Times,serif" font-size="14.00">Will&#39;s Server</text>
</g>
<!-- Will&#39;s Devices&#45;&gt;Will&#39;s Server -->
<g id="edge2" class="edge"><title>Will&#39;s Devices&#45;&gt;Will&#39;s Server</title>
<path fill="none" stroke="black" d="M74.0272,-215.697C73.2315,-207.983 73.005,-198.712 73.3476,-190.112"/>
<polygon fill="black" stroke="black" points="76.8413,-190.324 74.0479,-180.104 69.8583,-189.836 76.8413,-190.324"/>
</g>
<!-- Will&#39;s Server&#45;&gt;Will&#39;s Devices -->
<g id="edge3" class="edge"><title>Will&#39;s Server&#45;&gt;Will&#39;s Devices</title>
<path fill="none" stroke="black" d="M85.8379,-180.104C86.6434,-187.791 86.8798,-197.054 86.5469,-205.665"/>
<polygon fill="black" stroke="black" points="83.0515,-205.48 85.8586,-215.697 90.035,-205.96 83.0515,-205.48"/>
</g>
<!-- Lucas&#39;s Server -->
<g id="node4" class="node"><title>Lucas&#39;s Server</title>
<ellipse fill="none" stroke="black" cx="79.9429" cy="-18" rx="79.8859" ry="18"/>
<text text-anchor="middle" x="79.9429" y="-14.3" font-family="Times,serif" font-size="14.00">Lucas&#39;s Server</text>
</g>
<!-- Will&#39;s Server&#45;&gt;Lucas&#39;s Server -->
<g id="edge4" class="edge"><title>Will&#39;s Server&#45;&gt;Lucas&#39;s Server</title>
<path fill="none" stroke="black" d="M60.8154,-144.664C53.3679,-134.593 46.1983,-121.131 42.9429,-108 39.0928,-92.4701 39.0928,-87.5299 42.9429,-72 45.3218,-62.4043 49.791,-52.6317 54.9315,-44.135"/>
<polygon fill="black" stroke="black" points="57.8491,-46.0683 60.4719,-35.8033 52.0201,-42.1922 57.8491,-46.0683"/>
</g>
<!-- Mike&#39;s Server -->
<g id="node5" class="node"><title>Mike&#39;s Server</title>
<ellipse fill="none" stroke="black" cx="135.943" cy="-90" rx="75.2868" ry="18"/>
<text text-anchor="middle" x="135.943" y="-86.3" font-family="Times,serif" font-size="14.00">Mike&#39;s Server</text>
</g>
<!-- Will&#39;s Server&#45;&gt;Mike&#39;s Server -->
<g id="edge5" class="edge"><title>Will&#39;s Server&#45;&gt;Mike&#39;s Server</title>
<path fill="none" stroke="black" d="M87.6207,-144.055C93.5869,-135.457 101.871,-124.857 109.958,-115.397"/>
<polygon fill="black" stroke="black" points="112.674,-117.609 116.65,-107.789 107.418,-112.986 112.674,-117.609"/>
</g>
<!-- Lucas&#39;s Server&#45;&gt;Will&#39;s Server -->
<g id="edge8" class="edge"><title>Lucas&#39;s Server&#45;&gt;Will&#39;s Server</title>
<path fill="none" stroke="black" d="M75.9827,-36.2752C70.9304,-46.235 64.0981,-59.273 60.9429,-72 57.0928,-87.5299 57.0928,-92.4701 60.9429,-108 63.2107,-117.147 67.3781,-126.456 71.4188,-134.666"/>
<polygon fill="black" stroke="black" points="68.3575,-136.369 75.9827,-143.725 74.609,-133.219 68.3575,-136.369"/>
</g>
<!-- Lucas&#39;s Server&#45;&gt;Mike&#39;s Server -->
<g id="edge9" class="edge"><title>Lucas&#39;s Server&#45;&gt;Mike&#39;s Server</title>
<path fill="none" stroke="black" d="M99.2357,-35.789C106.86,-44.1914 115.35,-54.5347 122.338,-63.8609"/>
<polygon fill="black" stroke="black" points="119.568,-66.004 128.265,-72.055 125.24,-61.9012 119.568,-66.004"/>
</g>
<!-- Mike&#39;s Server&#45;&gt;Will&#39;s Server -->
<g id="edge6" class="edge"><title>Mike&#39;s Server&#45;&gt;Will&#39;s Server</title>
<path fill="none" stroke="black" d="M128.257,-107.956C122.255,-116.606 113.909,-127.279 105.778,-136.778"/>
<polygon fill="black" stroke="black" points="103.038,-134.594 99.054,-144.411 108.29,-139.22 103.038,-134.594"/>
</g>
<!-- Mike&#39;s Server&#45;&gt;Lucas&#39;s Server -->
<g id="edge7" class="edge"><title>Mike&#39;s Server&#45;&gt;Lucas&#39;s Server</title>
<path fill="none" stroke="black" d="M116.832,-72.411C109.177,-63.9915 100.629,-53.585 93.5943,-44.2007"/>
<polygon fill="black" stroke="black" points="96.3263,-42.0058 87.6285,-35.9562 90.6553,-46.1095 96.3263,-42.0058"/>
</g>
</g>
</svg>
