<?xml version="1.0" encoding="UTF-8" standalone="no"?>
<!DOCTYPE svg PUBLIC "-//W3C//DTD SVG 1.1//EN"
 "http://www.w3.org/Graphics/SVG/1.1/DTD/svg11.dtd">
<!-- Generated by graphviz version 2.38.0 (20140413.2041)
 -->
<!-- Title: %3 Pages: 1 -->
<svg width="1580pt" height="476pt"
 viewBox="0.00 0.00 1579.69 476.00" xmlns="http://www.w3.org/2000/svg" xmlns:xlink="http://www.w3.org/1999/xlink">
<g id="graph0" class="graph" transform="scale(1 1) rotate(0) translate(4 472)">
<title>%3</title>
<polygon fill="white" stroke="none" points="-4,4 -4,-472 1575.69,-472 1575.69,4 -4,4"/>
<!-- Will -->
<g id="node1" class="node"><title>Will</title>
<ellipse fill="none" stroke="black" cx="637" cy="-450" rx="29.4969" ry="18"/>
<text text-anchor="middle" x="637" y="-446.3" font-family="Times,serif" font-size="14.00">Will</text>
</g>
<!-- Desktop -->
<g id="node2" class="node"><title>Desktop</title>
<ellipse fill="none" stroke="black" cx="230" cy="-378" rx="49.2915" ry="18"/>
<text text-anchor="middle" x="230" y="-374.3" font-family="Times,serif" font-size="14.00">Desktop</text>
</g>
<!-- Will&#45;&gt;Desktop -->
<g id="edge1" class="edge"><title>Will&#45;&gt;Desktop</title>
<path fill="none" stroke="black" d="M608.878,-444.195C554.579,-434.913 431.52,-413.857 328,-396 313.759,-393.544 298.356,-390.876 284.073,-388.399"/>
<polygon fill="black" stroke="black" points="284.354,-384.895 273.903,-386.634 283.157,-391.792 284.354,-384.895"/>
</g>
<!-- Laptop -->
<g id="node3" class="node"><title>Laptop</title>
<ellipse fill="none" stroke="black" cx="308" cy="-234" rx="43.5923" ry="18"/>
<text text-anchor="middle" x="308" y="-230.3" font-family="Times,serif" font-size="14.00">Laptop</text>
</g>
<!-- Will&#45;&gt;Laptop -->
<g id="edge2" class="edge"><title>Will&#45;&gt;Laptop</title>
<path fill="none" stroke="black" d="M608.062,-446.907C545.877,-441.857 402.203,-427.059 366,-396 345.257,-378.204 324.372,-302.829 314.263,-261.829"/>
<polygon fill="black" stroke="black" points="317.629,-260.861 311.875,-251.965 310.826,-262.507 317.629,-260.861"/>
</g>
<!-- Phone -->
<g id="node4" class="node"><title>Phone</title>
<ellipse fill="none" stroke="black" cx="85" cy="-18" rx="39.7935" ry="18"/>
<text text-anchor="middle" x="85" y="-14.3" font-family="Times,serif" font-size="14.00">Phone</text>
</g>
<!-- Will&#45;&gt;Phone -->
<g id="edge3" class="edge"><title>Will&#45;&gt;Phone</title>
<path fill="none" stroke="black" d="M607.702,-449.118C505.954,-449.091 168.987,-445.205 75,-396 29.1727,-372.008 0,-358.728 0,-307 0,-307 0,-307 0,-161 0,-113.406 35.5888,-67.9504 60.71,-41.7932"/>
<polygon fill="black" stroke="black" points="63.2541,-44.1982 67.799,-34.6277 58.2778,-39.275 63.2541,-44.1982"/>
</g>
<!-- Dropbox -->
<g id="node5" class="node"><title>Dropbox</title>
<ellipse fill="none" stroke="black" cx="116" cy="-306" rx="50.0912" ry="18"/>
<text text-anchor="middle" x="116" y="-302.3" font-family="Times,serif" font-size="14.00">Dropbox</text>
</g>
<!-- Will&#45;&gt;Dropbox -->
<g id="edge4" class="edge"><title>Will&#45;&gt;Dropbox</title>
<path fill="none" stroke="black" d="M607.615,-448.91C517.235,-448.136 245.083,-441.955 172,-396 149.157,-381.636 134.023,-354.188 125.312,-333.555"/>
<polygon fill="black" stroke="black" points="128.486,-332.065 121.545,-324.06 121.979,-334.646 128.486,-332.065"/>
</g>
<!-- Gmail -->
<g id="node6" class="node"><title>Gmail</title>
<ellipse fill="none" stroke="black" cx="217" cy="-90" rx="38.1938" ry="18"/>
<text text-anchor="middle" x="217" y="-86.3" font-family="Times,serif" font-size="14.00">Gmail</text>
</g>
<!-- Will&#45;&gt;Gmail -->
<g id="edge5" class="edge"><title>Will&#45;&gt;Gmail</title>
<path fill="none" stroke="black" d="M607.863,-448.285C514.106,-445.62 221.368,-434.352 136,-396 92.6665,-376.532 76.1913,-367.457 57,-324 18.7079,-237.291 129.299,-148.776 185.894,-110.549"/>
<polygon fill="black" stroke="black" points="188.083,-113.297 194.483,-104.853 184.214,-107.463 188.083,-113.297"/>
</g>
<!-- Blogger -->
<g id="node7" class="node"><title>Blogger</title>
<ellipse fill="none" stroke="black" cx="321" cy="-90" rx="47.3916" ry="18"/>
<text text-anchor="middle" x="321" y="-86.3" font-family="Times,serif" font-size="14.00">Blogger</text>
</g>
<!-- Will&#45;&gt;Blogger -->
<g id="edge6" class="edge"><title>Will&#45;&gt;Blogger</title>
<path fill="none" stroke="black" d="M608.667,-445.175C559.304,-437.936 460.535,-420.71 437,-396 409.105,-366.712 418,-347.447 418,-307 418,-307 418,-307 418,-233 418,-192.553 421.575,-177.561 399,-144 389.238,-129.488 374.041,-117.858 359.644,-109.232"/>
<polygon fill="black" stroke="black" points="361.267,-106.129 350.84,-104.251 357.82,-112.222 361.267,-106.129"/>
</g>
<!-- Acme Game Forum -->
<g id="node8" class="node"><title>Acme Game Forum</title>
<ellipse fill="none" stroke="black" cx="546" cy="-378" rx="100.182" ry="18"/>
<text text-anchor="middle" x="546" y="-374.3" font-family="Times,serif" font-size="14.00">Acme Game Forum</text>
</g>
<!-- Will&#45;&gt;Acme Game Forum -->
<g id="edge7" class="edge"><title>Will&#45;&gt;Acme Game Forum</title>
<path fill="none" stroke="black" d="M619.454,-435.503C607.106,-426.005 590.274,-413.057 575.838,-401.952"/>
<polygon fill="black" stroke="black" points="577.727,-398.99 567.667,-395.667 573.459,-404.538 577.727,-398.99"/>
</g>
<!-- Acme Bank -->
<g id="node9" class="node"><title>Acme Bank</title>
<ellipse fill="none" stroke="black" cx="728" cy="-378" rx="63.8893" ry="18"/>
<text text-anchor="middle" x="728" y="-374.3" font-family="Times,serif" font-size="14.00">Acme Bank</text>
</g>
<!-- Will&#45;&gt;Acme Bank -->
<g id="edge8" class="edge"><title>Will&#45;&gt;Acme Bank</title>
<path fill="none" stroke="black" d="M654.546,-435.503C667.066,-425.872 684.198,-412.694 698.767,-401.487"/>
<polygon fill="black" stroke="black" points="701.202,-404.03 706.994,-395.158 696.934,-398.481 701.202,-404.03"/>
</g>
<!-- Flickr -->
<g id="node10" class="node"><title>Flickr</title>
<ellipse fill="none" stroke="black" cx="848" cy="-378" rx="38.1938" ry="18"/>
<text text-anchor="middle" x="848" y="-374.3" font-family="Times,serif" font-size="14.00">Flickr</text>
</g>
<!-- Will&#45;&gt;Flickr -->
<g id="edge9" class="edge"><title>Will&#45;&gt;Flickr</title>
<path fill="none" stroke="black" d="M662.657,-441.01C695.014,-430.864 752.308,-412.668 801,-396 803.694,-395.078 806.469,-394.113 809.261,-393.131"/>
<polygon fill="black" stroke="black" points="810.472,-396.415 818.721,-389.767 808.127,-389.82 810.472,-396.415"/>
</g>
<!-- FitBit -->
<g id="node11" class="node"><title>FitBit</title>
<ellipse fill="none" stroke="black" cx="942" cy="-378" rx="37.8943" ry="18"/>
<text text-anchor="middle" x="942" y="-374.3" font-family="Times,serif" font-size="14.00">FitBit</text>
</g>
<!-- Will&#45;&gt;FitBit -->
<g id="edge10" class="edge"><title>Will&#45;&gt;FitBit</title>
<path fill="none" stroke="black" d="M665.189,-444.582C712.97,-436.79 812.7,-419.206 895,-396 897.913,-395.179 900.904,-394.266 903.898,-393.301"/>
<polygon fill="black" stroke="black" points="905.029,-396.614 913.381,-390.095 902.787,-389.982 905.029,-396.614"/>
</g>
<!-- Disqus -->
<g id="node12" class="node"><title>Disqus</title>
<ellipse fill="none" stroke="black" cx="1040" cy="-378" rx="42.4939" ry="18"/>
<text text-anchor="middle" x="1040" y="-374.3" font-family="Times,serif" font-size="14.00">Disqus</text>
</g>
<!-- Will&#45;&gt;Disqus -->
<g id="edge11" class="edge"><title>Will&#45;&gt;Disqus</title>
<path fill="none" stroke="black" d="M666.07,-446.336C726.72,-440.403 870.918,-424.346 989,-396 992.369,-395.191 995.834,-394.259 999.295,-393.257"/>
<polygon fill="black" stroke="black" points="1000.43,-396.571 1008.96,-390.291 998.373,-389.879 1000.43,-396.571"/>
</g>
<!-- Goodreads -->
<g id="node13" class="node"><title>Goodreads</title>
<ellipse fill="none" stroke="black" cx="1161" cy="-378" rx="60.3893" ry="18"/>
<text text-anchor="middle" x="1161" y="-374.3" font-family="Times,serif" font-size="14.00">Goodreads</text>
</g>
<!-- Will&#45;&gt;Goodreads -->
<g id="edge12" class="edge"><title>Will&#45;&gt;Goodreads</title>
<path fill="none" stroke="black" d="M665.862,-446.861C737.97,-441.25 931.652,-424.541 1091,-396 1096.31,-395.049 1101.82,-393.936 1107.3,-392.743"/>
<polygon fill="black" stroke="black" points="1108.13,-396.144 1117.11,-390.525 1106.59,-389.317 1108.13,-396.144"/>
</g>
<!-- Quora -->
<g id="node14" class="node"><title>Quora</title>
<ellipse fill="none" stroke="black" cx="1279" cy="-378" rx="39.7935" ry="18"/>
<text text-anchor="middle" x="1279" y="-374.3" font-family="Times,serif" font-size="14.00">Quora</text>
</g>
<!-- Will&#45;&gt;Quora -->
<g id="edge13" class="edge"><title>Will&#45;&gt;Quora</title>
<path fill="none" stroke="black" d="M666.379,-448.902C753.443,-448.074 1017.27,-441.684 1230,-396 1233.4,-395.269 1236.9,-394.371 1240.38,-393.373"/>
<polygon fill="black" stroke="black" points="1241.55,-396.672 1250.05,-390.351 1239.47,-389.991 1241.55,-396.672"/>
</g>
<!-- Google Drive -->
<g id="node15" class="node"><title>Google Drive</title>
<ellipse fill="none" stroke="black" cx="319" cy="-162" rx="71.4873" ry="18"/>
<text text-anchor="middle" x="319" y="-158.3" font-family="Times,serif" font-size="14.00">Google Drive</text>
</g>
<!-- Will&#45;&gt;Google Drive -->
<g id="edge14" class="edge"><title>Will&#45;&gt;Google Drive</title>
<path fill="none" stroke="black" d="M608.086,-446.206C552.278,-440.226 432.682,-424.373 404,-396 345.526,-338.156 396.947,-289.98 361,-216 356.101,-205.917 349.013,-195.983 342.051,-187.488"/>
<polygon fill="black" stroke="black" points="344.654,-185.146 335.491,-179.828 339.337,-189.7 344.654,-185.146"/>
</g>
<!-- Twitter -->
<g id="node16" class="node"><title>Twitter</title>
<ellipse fill="none" stroke="black" cx="1381" cy="-378" rx="44.6926" ry="18"/>
<text text-anchor="middle" x="1381" y="-374.3" font-family="Times,serif" font-size="14.00">Twitter</text>
</g>
<!-- Will&#45;&gt;Twitter -->
<g id="edge15" class="edge"><title>Will&#45;&gt;Twitter</title>
<path fill="none" stroke="black" d="M666.292,-449.186C762.226,-449.28 1075.32,-445.504 1328,-396 1331.63,-395.289 1335.35,-394.412 1339.07,-393.432"/>
<polygon fill="black" stroke="black" points="1340.15,-396.764 1348.8,-390.649 1338.22,-390.034 1340.15,-396.764"/>
</g>
<!-- Blackboard -->
<g id="node17" class="node"><title>Blackboard</title>
<ellipse fill="none" stroke="black" cx="1508" cy="-378" rx="63.8893" ry="18"/>
<text text-anchor="middle" x="1508" y="-374.3" font-family="Times,serif" font-size="14.00">Blackboard</text>
</g>
<!-- Will&#45;&gt;Blackboard -->
<g id="edge16" class="edge"><title>Will&#45;&gt;Blackboard</title>
<path fill="none" stroke="black" d="M666.531,-448.765C771.66,-447.562 1137.32,-440.247 1435,-396 1440.77,-395.142 1446.76,-394.063 1452.72,-392.867"/>
<polygon fill="black" stroke="black" points="1453.6,-396.257 1462.66,-390.761 1452.15,-389.409 1453.6,-396.257"/>
</g>
<!-- Desktop&#45;&gt;Dropbox -->
<g id="edge18" class="edge"><title>Desktop&#45;&gt;Dropbox</title>
<path fill="none" stroke="black" d="M201.974,-363.17C184.496,-353.263 162.199,-339.73 144.623,-328.43"/>
<polygon fill="black" stroke="black" points="146.203,-325.282 135.913,-322.756 142.382,-331.147 146.203,-325.282"/>
</g>
<!-- Backup -->
<g id="node18" class="node"><title>Backup</title>
<ellipse fill="none" stroke="black" cx="230" cy="-306" rx="46.2923" ry="18"/>
<text text-anchor="middle" x="230" y="-302.3" font-family="Times,serif" font-size="14.00">Backup</text>
</g>
<!-- Desktop&#45;&gt;Backup -->
<g id="edge17" class="edge"><title>Desktop&#45;&gt;Backup</title>
<path fill="none" stroke="black" d="M230,-359.697C230,-351.983 230,-342.712 230,-334.112"/>
<polygon fill="black" stroke="black" points="233.5,-334.104 230,-324.104 226.5,-334.104 233.5,-334.104"/>
</g>
<!-- Laptop&#45;&gt;Dropbox -->
<g id="edge20" class="edge"><title>Laptop&#45;&gt;Dropbox</title>
<path fill="none" stroke="black" d="M278.818,-247.581C247.804,-259.541 198.56,-277.532 162.279,-290.181"/>
<polygon fill="black" stroke="black" points="160.72,-287.017 152.416,-293.597 163.011,-293.631 160.72,-287.017"/>
</g>
<!-- Laptop&#45;&gt;Google Drive -->
<g id="edge25" class="edge"><title>Laptop&#45;&gt;Google Drive</title>
<path fill="none" stroke="black" d="M304.803,-215.697C305.22,-207.983 306.45,-198.712 308.144,-190.112"/>
<polygon fill="black" stroke="black" points="311.615,-190.631 310.417,-180.104 304.789,-189.081 311.615,-190.631"/>
</g>
<!-- Phone&#45;&gt;Dropbox -->
<g id="edge22" class="edge"><title>Phone&#45;&gt;Dropbox</title>
<path fill="none" stroke="black" d="M90.2418,-35.9448C99.5971,-83.6232 114.554,-219.251 117.211,-277.676"/>
<polygon fill="black" stroke="black" points="113.723,-278.093 117.567,-287.966 120.719,-277.851 113.723,-278.093"/>
</g>
<!-- Dropbox&#45;&gt;Desktop -->
<g id="edge19" class="edge"><title>Dropbox&#45;&gt;Desktop</title>
<path fill="none" stroke="black" d="M144.442,-321.066C161.984,-331.023 184.262,-344.555 201.757,-355.815"/>
<polygon fill="black" stroke="black" points="200.132,-358.933 210.42,-361.465 203.956,-353.07 200.132,-358.933"/>
</g>
<!-- Dropbox&#45;&gt;Laptop -->
<g id="edge21" class="edge"><title>Dropbox&#45;&gt;Laptop</title>
<path fill="none" stroke="black" d="M147.131,-291.669C179.018,-279.413 228.636,-261.314 264.401,-248.886"/>
<polygon fill="black" stroke="black" points="265.784,-252.111 274.095,-245.541 263.5,-245.494 265.784,-252.111"/>
</g>
<!-- Dropbox&#45;&gt;Phone -->
<g id="edge23" class="edge"><title>Dropbox&#45;&gt;Phone</title>
<path fill="none" stroke="black" d="M110.741,-287.966C101.401,-240.291 86.4966,-105.185 83.8031,-46.63"/>
<polygon fill="black" stroke="black" points="87.2894,-46.1769 83.4393,-36.3065 80.2938,-46.4236 87.2894,-46.1769"/>
</g>
<!-- Gmail&#45;&gt;Desktop -->
<g id="edge26" class="edge"><title>Gmail&#45;&gt;Desktop</title>
<path fill="none" stroke="black" d="M218.462,-108.333C221.591,-138.828 230.744,-203.441 255,-252 264.307,-270.632 277.91,-268.417 285,-288 290.447,-303.044 291.26,-309.275 285,-324 279.801,-336.229 270.245,-347.006 260.539,-355.593"/>
<polygon fill="black" stroke="black" points="258.275,-352.923 252.803,-361.996 262.738,-358.315 258.275,-352.923"/>
</g>
<!-- Gmail&#45;&gt;Phone -->
<g id="edge27" class="edge"><title>Gmail&#45;&gt;Phone</title>
<path fill="none" stroke="black" d="M192.481,-75.9976C171.774,-65.0165 141.905,-49.1772 118.908,-36.9815"/>
<polygon fill="black" stroke="black" points="120.31,-33.7633 109.835,-32.1703 117.03,-39.9475 120.31,-33.7633"/>
</g>
<!-- Gmail&#45;&gt;Google Drive -->
<g id="edge28" class="edge"><title>Gmail&#45;&gt;Google Drive</title>
<path fill="none" stroke="black" d="M241.287,-103.973C256.705,-113.596 276.506,-126.961 292.335,-138.334"/>
<polygon fill="black" stroke="black" points="290.525,-141.346 300.667,-144.411 294.65,-135.691 290.525,-141.346"/>
</g>
<!-- Blogger&#45;&gt;Google Drive -->
<g id="edge30" class="edge"><title>Blogger&#45;&gt;Google Drive</title>
<path fill="none" stroke="black" d="M326.419,-108.275C326.999,-116.03 326.959,-125.362 326.362,-134.005"/>
<polygon fill="black" stroke="black" points="322.869,-133.758 325.362,-144.055 329.835,-134.45 322.869,-133.758"/>
</g>
<!-- Mint -->
<g id="node19" class="node"><title>Mint</title>
<ellipse fill="none" stroke="black" cx="728" cy="-306" rx="32.4942" ry="18"/>
<text text-anchor="middle" x="728" y="-302.3" font-family="Times,serif" font-size="14.00">Mint</text>
</g>
<!-- Acme Bank&#45;&gt;Mint -->
<g id="edge32" class="edge"><title>Acme Bank&#45;&gt;Mint</title>
<path fill="none" stroke="black" d="M728,-359.697C728,-351.983 728,-342.712 728,-334.112"/>
<polygon fill="black" stroke="black" points="731.5,-334.104 728,-324.104 724.5,-334.104 731.5,-334.104"/>
</g>
<!-- Google Drive&#45;&gt;Laptop -->
<g id="edge24" class="edge"><title>Google Drive&#45;&gt;Laptop</title>
<path fill="none" stroke="black" d="M322.198,-180.275C321.777,-188.115 320.513,-197.567 318.776,-206.29"/>
<polygon fill="black" stroke="black" points="315.361,-205.526 316.541,-216.055 322.184,-207.088 315.361,-205.526"/>
</g>
<!-- Google Drive&#45;&gt;Gmail -->
<g id="edge29" class="edge"><title>Google Drive&#45;&gt;Gmail</title>
<path fill="none" stroke="black" d="M290.643,-145.465C275.257,-135.7 256.529,-122.972 241.737,-112.276"/>
<polygon fill="black" stroke="black" points="243.668,-109.352 233.537,-106.251 239.523,-114.993 243.668,-109.352"/>
</g>
<!-- Google Drive&#45;&gt;Blogger -->
<g id="edge31" class="edge"><title>Google Drive&#45;&gt;Blogger</title>
<path fill="none" stroke="black" d="M313.579,-143.697C313.003,-135.983 313.042,-126.712 313.63,-118.112"/>
<polygon fill="black" stroke="black" points="317.119,-118.399 314.616,-108.104 310.152,-117.713 317.119,-118.399"/>
</g>
</g>
</svg>
